# WaveFront *.obj file (generated by Autodesk ATF)

mtllib Push Pin.mtl

g Solid1

v -4.404705 -0.633301 0.000000
v -4.047862 1.848597 0.000000
v -3.785101 0.000000 1.959596
v -3.625000 0.000000 13.000000
v -3.512879 0.000000 12.294912
v -3.363086 -2.914130 0.000000
v -3.062212 -2.224827 1.959596
v -3.062212 2.224827 1.959596
v -2.932687 -2.130722 13.000000
v -2.932687 2.130722 13.000000
v -2.691021 -2.258035 12.294912
v -2.691021 2.258035 12.294912
v -2.681184 0.000000 11.156106
v -2.405852 3.743578 0.000000
v -2.363539 0.416756 3.000000
v -2.078461 -1.200000 3.000000
v -2.053906 -1.723432 11.156106
v -2.053906 1.723432 11.156106
v -1.800000 0.000000 9.413793
v -1.649553 0.290861 10.750000
v -1.542690 1.838507 3.000000
v -1.450593 -0.837500 10.750000
v -1.378880 -1.157018 9.413793
v -1.378880 1.157018 9.413793
v -1.253710 -4.269744 0.000000
v -1.169661 -3.599845 1.959596
v -1.169661 3.599845 1.959596
v -1.120187 -3.447580 13.000000
v -1.120187 3.447580 13.000000
v -1.076669 1.283124 10.750000
v -0.820848 -2.255262 3.000000
v -0.610005 -3.459510 12.294912
v -0.610005 3.459510 12.294912
v -0.585000 0.000000 -9.000000
v -0.585000 0.000000 0.000000
v -0.572884 -1.573985 10.750000
v -0.465583 -2.640451 11.156106
v -0.465583 2.640451 11.156106
v -0.448136 -0.376031 -9.000000
v -0.448136 -0.376031 0.000000
v -0.448136 0.376031 -9.000000
v -0.448136 0.376031 0.000000
v -0.312567 -1.772654 9.413793
v -0.312567 1.772654 9.413793
v -0.288056 0.050792 -9.911208
v -0.253312 -0.146250 -9.911208
v -0.188015 0.224068 -9.911208
v -0.101584 -0.576113 -9.000000
v -0.101584 -0.576113 0.000000
v -0.101584 0.576113 -9.000000
v -0.101584 0.576113 0.000000
v -0.100041 -0.274860 -9.911208
v 0.000000 0.000000 -10.822414
v 0.000000 0.292500 -9.911208
v 0.000000 1.675000 10.750000
v 0.000000 2.400000 3.000000
v 0.000000 4.450000 0.000000
v 0.100041 -0.274860 -9.911208
v 0.188015 0.224068 -9.911208
v 0.253312 -0.146250 -9.911208
v 0.288056 0.050792 -9.911208
v 0.292500 -0.506625 -9.000000
v 0.292500 -0.506625 0.000000
v 0.292500 0.506625 -9.000000
v 0.292500 0.506625 0.000000
v 0.549720 -0.200082 -9.000000
v 0.549720 -0.200082 0.000000
v 0.549720 0.200082 -9.000000
v 0.549720 0.200082 0.000000
v 0.572884 -1.573985 10.750000
v 0.820848 -2.255262 3.000000
v 0.900000 -1.558846 9.413793
v 0.900000 1.558846 9.413793
v 1.076669 1.283124 10.750000
v 1.120187 -3.447580 13.000000
v 1.120187 3.447580 13.000000
v 1.169661 -3.599845 1.959596
v 1.169661 3.599845 1.959596
v 1.253710 -4.269744 0.000000
v 1.340592 -2.321974 11.156106
v 1.340592 2.321974 11.156106
v 1.450593 -0.837500 10.750000
v 1.542690 1.838507 3.000000
v 1.649553 0.290861 10.750000
v 1.691447 -0.615636 9.413793
v 1.691447 0.615636 9.413793
v 1.756440 -3.042242 12.294912
v 1.756440 3.042242 12.294912
v 2.078461 -1.200000 3.000000
v 2.363539 0.416756 3.000000
v 2.405852 3.743578 0.000000
v 2.519489 -0.917019 11.156106
v 2.519489 0.917019 11.156106
v 2.932687 -2.130722 13.000000
v 2.932687 2.130722 13.000000
v 3.062212 -2.224827 1.959596
v 3.062212 2.224827 1.959596
v 3.301026 -1.201475 12.294912
v 3.301026 1.201475 12.294912
v 3.363086 -2.914130 0.000000
v 3.625000 0.000000 13.000000
v 3.785101 0.000000 1.959596
v 4.047862 1.848597 0.000000
v 4.404705 -0.633301 0.000000
vt -0.900000 0.183783 0.000000
vt -0.900000 0.142942 0.000000
vt -0.900000 0.102102 0.000000
vt -0.900000 0.061261 0.000000
vt -0.900000 0.020420 0.000000
vt -0.900000 -0.020420 0.000000
vt -0.900000 -0.061261 0.000000
vt -0.900000 -0.102102 0.000000
vt -0.900000 -0.142942 0.000000
vt -0.000000 -0.183783 0.000000
vt -0.000000 -0.142942 0.000000
vt -0.000000 -0.102102 0.000000
vt -0.000000 -0.061261 0.000000
vt -0.000000 -0.020420 0.000000
vt -0.000000 0.020420 0.000000
vt -0.000000 0.061261 0.000000
vt -0.000000 0.102102 0.000000
vt -0.000000 0.142942 0.000000
vt -0.000000 0.183783 0.000000
vt -0.900000 -0.183783 0.000000
vt 0.095700 -0.091892 0.000000
vt -0.095700 -0.045946 0.000000
vt -0.095700 -0.066366 0.000000
vt -0.095700 0.096997 0.000000
vt -0.095700 0.076576 0.000000
vt -0.095700 0.056156 0.000000
vt -0.095700 0.035736 0.000000
vt -0.095700 0.015315 0.000000
vt -0.095700 -0.005105 0.000000
vt -0.095700 -0.025525 0.000000
vt 0.095700 -0.071471 0.000000
vt 0.095700 -0.051051 0.000000
vt 0.095700 -0.030631 0.000000
vt 0.095700 -0.010210 0.000000
vt 0.095700 0.010210 0.000000
vt 0.095700 0.030631 0.000000
vt 0.095700 0.051051 0.000000
vt 0.095700 0.071471 0.000000
vt -0.000000 -0.091892 0.000000
vt -0.000000 -0.071471 0.000000
vt -0.000000 -0.051051 0.000000
vt -0.000000 -0.030631 0.000000
vt -0.000000 0.071471 0.000000
vt -0.000000 0.051051 0.000000
vt -0.000000 0.030631 0.000000
vt -0.000000 0.010210 0.000000
vt -0.000000 -0.010210 0.000000
vt -0.000000 0.091892 0.000000
vt -0.000000 0.091892 0.000000
vt -0.095700 -0.086787 0.000000
vt -0.095700 -0.086787 0.000000
vt -0.000000 0.091892 0.000000
vt 0.324637 0.482181 0.000000
vt 0.324637 0.696484 0.000000
vt 0.324637 -1.017939 0.000000
vt 0.324637 -0.803636 0.000000
vt 0.324637 -0.589333 0.000000
vt 0.324637 -0.375030 0.000000
vt 0.324637 -0.160727 0.000000
vt 0.324637 0.053576 0.000000
vt 0.324637 0.267879 0.000000
vt -0.000000 0.000000 0.000000
vt -0.000000 -0.192873 0.000000
vt -0.000000 -0.385745 0.000000
vt -0.000000 -0.578618 0.000000
vt -0.000000 -0.771490 0.000000
vt -0.000000 0.964363 0.000000
vt -0.000000 0.771490 0.000000
vt -0.000000 0.578618 0.000000
vt -0.000000 0.385745 0.000000
vt -0.000000 0.192873 0.000000
vt 0.215074 0.964363 0.000000
vt 0.071691 0.964363 0.000000
vt 0.215074 0.535757 0.000000
vt 0.071691 0.535757 0.000000
vt 0.071691 0.321454 0.000000
vt 0.215074 0.321454 0.000000
vt 0.215074 0.750060 0.000000
vt 0.071691 0.750060 0.000000
vt 0.215074 -0.750060 0.000000
vt 0.071691 -0.750060 0.000000
vt 0.215074 -0.535757 0.000000
vt 0.071691 -0.535757 0.000000
vt 0.215074 -0.321454 0.000000
vt 0.071691 -0.321454 0.000000
vt 0.215074 -0.107151 0.000000
vt 0.071691 -0.107151 0.000000
vt 0.215074 0.107151 0.000000
vt 0.071691 0.107151 0.000000
vt 0.215074 -0.964363 0.000000
vt 0.215074 -0.964363 0.000000
vt 0.324637 0.910787 0.000000
vt 0.324637 0.910787 0.000000
vt -0.000000 1.157236 0.000000
vt 0.071691 -0.964363 0.000000
vt 0.215074 -0.964363 0.000000
vt 0.071691 1.178666 0.000000
vt 0.362500 0.000000 0.000000
vt 0.293269 0.213072 0.000000
vt 0.112019 0.344758 0.000000
vt -0.112019 0.344758 0.000000
vt -0.293269 0.213072 0.000000
vt -0.362500 0.000000 0.000000
vt -0.293269 -0.213072 0.000000
vt -0.112019 -0.344758 0.000000
vt 0.112019 -0.344758 0.000000
vt 0.293269 -0.213072 0.000000
vt -0.000000 0.320050 0.000000
vt -0.000000 0.462294 0.000000
vt -0.000000 -0.675661 0.000000
vt -0.000000 -0.533416 0.000000
vt -0.000000 -0.391172 0.000000
vt -0.000000 -0.248928 0.000000
vt -0.000000 -0.106683 0.000000
vt -0.000000 0.035561 0.000000
vt -0.000000 0.177805 0.000000
vt -0.778384 0.320050 0.000000
vt -0.778384 0.177805 0.000000
vt -0.778384 0.035561 0.000000
vt -0.778384 -0.106683 0.000000
vt -0.778384 -0.248928 0.000000
vt -0.778384 -0.391172 0.000000
vt -0.778384 0.746783 0.000000
vt -0.778384 0.604538 0.000000
vt -0.778384 0.462294 0.000000
vt -0.644180 0.355611 0.000000
vt -0.644180 0.213367 0.000000
vt -0.644180 0.497855 0.000000
vt -0.644180 0.640100 0.000000
vt -0.644180 -0.497855 0.000000
vt -0.644180 -0.355611 0.000000
vt -0.644180 -0.213367 0.000000
vt -0.644180 -0.071122 0.000000
vt -0.644180 0.071122 0.000000
vt -0.644180 -0.640100 0.000000
vt -0.644180 -0.640100 0.000000
vt -0.000000 0.604538 0.000000
vt -0.000000 0.604538 0.000000
vt -0.644180 0.782344 0.000000
vt -0.778384 -0.533416 0.000000
vt -0.000000 0.610813 0.000000
vt -0.000000 0.832926 0.000000
vt -0.000000 -1.388211 0.000000
vt -0.000000 -1.166097 0.000000
vt -0.000000 -0.943983 0.000000
vt -0.000000 -0.721870 0.000000
vt -0.000000 -0.499756 0.000000
vt -0.000000 -0.277642 0.000000
vt -0.000000 -0.055528 0.000000
vt -0.000000 0.166585 0.000000
vt -0.000000 0.388699 0.000000
vt -0.386062 0.610813 0.000000
vt -0.386062 0.339340 0.000000
vt -0.386062 0.067868 0.000000
vt -0.386062 -0.203604 0.000000
vt -0.386062 -0.475077 0.000000
vt -0.386062 -0.746549 0.000000
vt -0.386062 1.425230 0.000000
vt -0.386062 1.153757 0.000000
vt -0.386062 0.882285 0.000000
vt -0.210670 -0.488650 0.000000
vt -0.210670 0.732975 0.000000
vt -0.210670 0.488650 0.000000
vt -0.210670 0.977300 0.000000
vt -0.210670 1.221625 0.000000
vt -0.210670 -0.977300 0.000000
vt -0.210670 -0.732975 0.000000
vt -0.210670 -0.244325 0.000000
vt -0.210670 0.000000 0.000000
vt -0.210670 0.244325 0.000000
vt -0.210670 -1.221625 0.000000
vt -0.210670 -1.221625 0.000000
vt -0.000000 1.055040 0.000000
vt -0.000000 1.055040 0.000000
vt -0.210670 1.465951 0.000000
vt -0.386062 -1.018021 0.000000
vt 0.058500 0.000000 0.000000
vt 0.044814 -0.037603 0.000000
vt 0.010158 -0.057611 0.000000
vt -0.029250 -0.050662 0.000000
vt -0.054972 -0.020008 0.000000
vt -0.054972 0.020008 0.000000
vt -0.029250 0.050662 0.000000
vt 0.010158 0.057611 0.000000
vt 0.044814 0.037603 0.000000
vt -0.000000 0.445000 0.000000
vt -0.240585 0.374358 0.000000
vt -0.404786 0.184860 0.000000
vt -0.440471 -0.063330 0.000000
vt -0.336309 -0.291413 0.000000
vt -0.125371 -0.426974 0.000000
vt 0.125371 -0.426974 0.000000
vt 0.336309 -0.291413 0.000000
vt 0.440471 -0.063330 0.000000
vt 0.404786 0.184860 0.000000
vt 0.240585 0.374358 0.000000
vn -0.100000 0.000000 0.000000
vn -0.076604 -0.064279 0.000000
vn -0.017365 -0.098481 0.000000
vn 0.050000 -0.086603 0.000000
vn 0.093969 -0.034202 0.000000
vn 0.093969 0.034202 0.000000
vn 0.050000 0.086603 0.000000
vn -0.017365 0.098481 0.000000
vn -0.076604 0.064279 0.000000
vn -0.100000 0.000000 0.000000
vn -0.076604 0.064279 0.000000
vn -0.017365 0.098481 0.000000
vn 0.050000 0.086603 0.000000
vn 0.093969 0.034202 0.000000
vn 0.093969 -0.034202 0.000000
vn 0.050000 -0.086603 0.000000
vn -0.017365 -0.098481 0.000000
vn -0.076604 -0.064279 0.000000
vn -0.100000 0.000000 0.000000
vn -0.100000 0.000000 0.000000
vn 0.000000 0.095215 -0.030564
vn -0.095215 0.000000 -0.030564
vn -0.072939 0.061203 -0.030564
vn -0.016534 0.093768 -0.030564
vn 0.047607 0.082458 -0.030564
vn 0.089473 0.032565 -0.030564
vn 0.089473 -0.032565 -0.030564
vn 0.047607 -0.082458 -0.030564
vn -0.016534 -0.093768 -0.030564
vn -0.072939 -0.061203 -0.030564
vn -0.061203 0.072939 -0.030564
vn -0.093768 0.016534 -0.030564
vn -0.082458 -0.047607 -0.030564
vn -0.032565 -0.089473 -0.030564
vn 0.032565 -0.089473 -0.030564
vn 0.082458 -0.047607 -0.030564
vn 0.093768 0.016534 -0.030564
vn 0.061203 0.072939 -0.030564
vn 0.000000 0.095215 -0.030564
vn -0.061203 0.072939 -0.030564
vn -0.093768 0.016534 -0.030564
vn -0.082458 -0.047607 -0.030564
vn 0.061203 0.072939 -0.030564
vn 0.093768 0.016534 -0.030564
vn 0.082458 -0.047607 -0.030564
vn 0.032565 -0.089473 -0.030564
vn -0.032565 -0.089473 -0.030564
vn 0.000000 0.095215 -0.030564
vn 0.000000 0.095215 -0.030564
vn -0.016534 0.093768 -0.030564
vn -0.016534 0.093768 -0.030564
vn 0.000000 0.095215 -0.030564
vn 0.000000 0.014213 -0.098985
vn -0.009136 0.010888 -0.098985
vn -0.013997 0.002468 -0.098985
vn -0.012309 -0.007107 -0.098985
vn -0.004861 -0.013356 -0.098985
vn 0.004861 -0.013356 -0.098985
vn 0.012309 -0.007107 -0.098985
vn 0.013997 0.002468 -0.098985
vn 0.009136 0.010888 -0.098985
vn 0.100000 0.000000 0.000000
vn 0.080902 -0.058779 0.000000
vn 0.030902 -0.095106 0.000000
vn -0.030902 -0.095106 0.000000
vn -0.080902 -0.058779 0.000000
vn -0.100000 0.000000 0.000000
vn -0.080902 0.058779 0.000000
vn -0.030902 0.095106 0.000000
vn 0.030902 0.095106 0.000000
vn 0.080902 0.058779 0.000000
vn -0.058478 0.000000 -0.081119
vn -0.095067 0.000000 -0.031019
vn -0.010155 0.057590 -0.081119
vn -0.016508 0.093623 -0.031019
vn 0.047534 0.082331 -0.031019
vn 0.029239 0.050644 -0.081119
vn -0.044797 0.037589 -0.081119
vn -0.072826 0.061108 -0.031019
vn -0.044797 -0.037589 -0.081119
vn -0.072826 -0.061108 -0.031019
vn -0.010155 -0.057590 -0.081119
vn -0.016508 -0.093623 -0.031019
vn 0.029239 -0.050644 -0.081119
vn 0.047534 -0.082331 -0.031019
vn 0.054952 -0.020001 -0.081119
vn 0.089334 -0.032515 -0.031019
vn 0.054952 0.020001 -0.081119
vn 0.089334 0.032515 -0.031019
vn -0.058478 0.000000 -0.081119
vn -0.058478 0.000000 -0.081119
vn -0.013997 0.002468 -0.098985
vn -0.013997 0.002468 -0.098985
vn -0.080902 -0.058779 0.000000
vn -0.095067 0.000000 -0.031019
vn -0.058478 0.000000 -0.081119
vn -0.072826 -0.061108 -0.031019
vn 0.000000 0.000000 0.100000
vn 0.000000 0.000000 0.100000
vn 0.000000 0.000000 0.100000
vn 0.000000 0.000000 0.100000
vn 0.000000 0.000000 0.100000
vn 0.000000 0.000000 0.100000
vn 0.000000 0.000000 0.100000
vn 0.000000 0.000000 0.100000
vn 0.000000 0.000000 0.100000
vn 0.000000 0.000000 0.100000
vn 0.000000 0.099565 0.009314
vn -0.063999 0.076271 0.009314
vn -0.098053 0.017289 0.009314
vn -0.086226 -0.049783 0.009314
vn -0.034053 -0.093561 0.009314
vn 0.034053 -0.093561 0.009314
vn 0.086226 -0.049783 0.009314
vn 0.098053 0.017289 0.009314
vn 0.063999 0.076271 0.009314
vn 0.000000 0.099565 0.009314
vn 0.063999 0.076271 0.009314
vn 0.098053 0.017289 0.009314
vn 0.086226 -0.049783 0.009314
vn 0.034053 -0.093561 0.009314
vn -0.034053 -0.093561 0.009314
vn -0.086226 -0.049783 0.009314
vn -0.098053 0.017289 0.009314
vn -0.063999 0.076271 0.009314
vn -0.017289 0.098053 0.009314
vn 0.049783 0.086226 0.009314
vn -0.076271 0.063999 0.009314
vn -0.099565 0.000000 0.009314
vn -0.076271 -0.063999 0.009314
vn -0.017289 -0.098053 0.009314
vn 0.049783 -0.086226 0.009314
vn 0.093561 -0.034053 0.009314
vn 0.093561 0.034053 0.009314
vn -0.099565 0.000000 0.009314
vn -0.099565 0.000000 0.009314
vn -0.098053 0.017289 0.009314
vn -0.098053 0.017289 0.009314
vn -0.076271 -0.063999 0.009314
vn -0.086226 -0.049783 0.009314
vn 0.000000 0.100000 0.000000
vn -0.054064 0.084125 0.000000
vn -0.090963 0.041542 0.000000
vn -0.098982 -0.014231 0.000000
vn -0.075575 -0.065486 0.000000
vn -0.028173 -0.095949 0.000000
vn 0.028173 -0.095949 0.000000
vn 0.075575 -0.065486 0.000000
vn 0.098982 -0.014231 0.000000
vn 0.090963 0.041542 0.000000
vn 0.054064 0.084125 0.000000
vn 0.000000 0.036338 0.093164
vn 0.023357 0.027836 0.093164
vn 0.035786 0.006310 0.093164
vn 0.031469 -0.018169 0.093164
vn 0.012428 -0.034146 0.093164
vn -0.012428 -0.034146 0.093164
vn -0.031469 -0.018169 0.093164
vn -0.035786 0.006310 0.093164
vn -0.023357 0.027836 0.093164
vn 0.024521 -0.075468 0.060855
vn -0.024521 0.075468 0.060855
vn 0.024521 0.075468 0.060855
vn -0.064197 0.046642 0.060855
vn -0.079352 0.000000 0.060855
vn -0.064197 -0.046642 0.060855
vn -0.024521 -0.075468 0.060855
vn 0.064197 -0.046642 0.060855
vn 0.079352 0.000000 0.060855
vn 0.064197 0.046642 0.060855
vn -0.079352 0.000000 0.060855
vn -0.079352 0.000000 0.060855
vn -0.090963 0.041542 0.000000
vn -0.090963 0.041542 0.000000
vn -0.064197 -0.046642 0.060855
vn -0.031469 -0.018169 0.093164
vn 0.000000 0.000000 -0.100000
vn 0.000000 0.000000 -0.100000
vn 0.000000 0.000000 -0.100000
vn 0.000000 0.000000 -0.100000
vn 0.000000 0.000000 -0.100000
vn 0.000000 0.000000 -0.100000
vn 0.000000 0.000000 -0.100000
vn 0.000000 0.000000 -0.100000
vn 0.000000 0.000000 -0.100000
vn 0.000000 0.000000 -0.100000
vn 0.000000 0.000000 -0.100000
vn 0.000000 0.000000 -0.100000
vn 0.000000 0.000000 -0.100000
vn 0.000000 0.000000 -0.100000
vn 0.000000 0.000000 -0.100000
vn 0.000000 0.000000 -0.100000
vn 0.000000 0.000000 -0.100000
vn 0.000000 0.000000 -0.100000
vn 0.000000 0.000000 -0.100000
vn 0.000000 0.000000 -0.100000
usemtl 190,188,186
f 39/2/2 40/18/18 34/1/1
f 34/1/1 40/18/18 35/19/19
f 34/20/20 35/10/10 41/9/9
f 41/9/9 35/10/10 42/11/11
f 41/9/9 42/11/11 50/8/8
f 50/8/8 42/11/11 51/12/12
f 50/8/8 51/12/12 64/7/7
f 64/7/7 51/12/12 65/13/13
f 64/7/7 65/13/13 68/6/6
f 68/6/6 65/13/13 69/14/14
f 68/6/6 69/14/14 66/5/5
f 66/5/5 69/14/14 67/15/15
f 66/5/5 67/15/15 62/4/4
f 62/4/4 67/15/15 63/16/16
f 62/4/4 63/16/16 48/3/3
f 48/3/3 63/16/16 49/17/17
f 48/3/3 49/17/17 39/2/2
f 39/2/2 49/17/17 40/18/18
f 41/23/23 45/41/41 34/22/22
f 34/22/22 45/41/41 46/42/42
f 34/22/22 46/42/42 39/30/30
f 39/30/30 46/42/42 52/47/47
f 39/30/30 52/47/47 48/29/29
f 48/29/29 52/47/47 58/46/46
f 48/29/29 58/46/46 62/28/28
f 62/28/28 58/46/46 60/45/45
f 62/28/28 60/45/45 66/27/27
f 66/27/27 60/45/45 61/44/44
f 66/27/27 61/44/44 68/26/26
f 68/26/26 61/44/44 59/43/43
f 68/26/26 59/43/43 64/25/25
f 64/25/25 59/43/43 54/48/48
f 64/25/25 54/49/49 50/24/24
f 50/50/50 54/39/39 47/40/40
f 50/51/51 47/40/40 41/23/23
f 41/23/23 47/40/40 45/41/41
f 47/40/40 53/31/31 45/41/41
f 45/41/41 53/32/32 46/42/42
f 46/42/42 53/33/33 52/47/47
f 52/47/47 53/34/34 58/46/46
f 58/46/46 53/35/35 60/45/45
f 60/45/45 53/36/36 61/44/44
f 61/44/44 53/37/37 59/43/43
f 59/43/43 53/38/38 54/52/52
f 54/39/39 53/21/21 47/40/40
usemtl 48,135,227
f 30/54/54 38/74/74 55/53/53
f 55/53/53 38/74/74 81/77/77
f 55/53/53 81/77/77 74/61/61
f 74/61/61 81/77/77 93/88/88
f 74/61/61 93/88/88 84/60/60
f 84/60/60 93/88/88 92/86/86
f 84/60/60 92/86/86 82/59/59
f 82/59/59 92/86/86 80/84/84
f 82/59/59 80/84/84 70/58/58
f 70/58/58 80/84/84 37/82/82
f 70/58/58 37/82/82 36/57/57
f 36/57/57 37/82/82 17/80/80
f 36/57/57 17/80/80 22/56/56
f 22/56/56 17/80/80 13/90/90
f 22/56/56 13/91/91 20/55/55
f 20/92/92 13/72/72 18/78/78
f 20/93/93 18/78/78 30/54/54
f 30/54/54 18/78/78 38/74/74
f 94/63/63 98/87/87 101/62/62
f 101/62/62 98/87/87 99/89/89
f 101/62/62 99/89/89 95/71/71
f 95/71/71 99/89/89 88/76/76
f 95/71/71 88/76/76 76/70/70
f 76/70/70 88/76/76 33/75/75
f 76/70/70 33/75/75 29/69/69
f 29/69/69 33/75/75 12/79/79
f 29/69/69 12/79/79 10/68/68
f 10/68/68 12/79/79 5/73/73
f 10/68/68 5/73/73 4/67/67
f 4/67/67 5/73/73 9/94/94
f 9/66/66 5/95/95 11/81/81
f 9/66/66 11/81/81 28/65/65
f 28/65/65 11/81/81 32/83/83
f 28/65/65 32/83/83 75/64/64
f 75/64/64 32/83/83 87/85/85
f 75/64/64 87/85/85 94/63/63
f 94/63/63 87/85/85 98/87/87
f 13/72/72 5/73/73 18/78/78
f 18/78/78 5/73/73 12/79/79
f 18/78/78 12/79/79 38/74/74
f 38/74/74 12/79/79 33/75/75
f 38/74/74 33/75/75 81/77/77
f 81/77/77 33/75/75 88/76/76
f 81/77/77 88/76/76 93/88/88
f 93/88/88 88/76/76 99/89/89
f 93/88/88 99/89/89 92/86/86
f 92/86/86 99/89/89 98/87/87
f 92/86/86 98/87/87 80/84/84
f 80/84/84 98/87/87 87/85/85
f 80/84/84 87/85/85 37/82/82
f 37/82/82 87/85/85 32/83/83
f 37/82/82 32/83/83 17/80/80
f 17/80/80 32/83/83 11/81/81
f 17/80/80 11/81/81 13/96/96
f 13/72/72 11/97/97 5/73/73
f 95/99/99 10/102/102 101/98/98
f 101/98/98 10/102/102 4/103/103
f 101/98/98 4/103/103 94/107/107
f 94/107/107 4/103/103 9/104/104
f 94/107/107 9/104/104 75/106/106
f 75/106/106 9/104/104 28/105/105
f 76/100/100 29/101/101 95/99/99
f 95/99/99 29/101/101 10/102/102
f 21/109/109 44/126/126 56/108/108
f 56/108/108 44/126/126 73/127/127
f 56/108/108 73/127/127 83/116/116
f 83/116/116 73/127/127 86/134/134
f 83/116/116 86/134/134 90/115/115
f 90/115/115 86/134/134 85/133/133
f 90/115/115 85/133/133 89/114/114
f 89/114/114 85/133/133 72/132/132
f 89/114/114 72/132/132 71/113/113
f 71/113/113 72/132/132 43/131/131
f 71/113/113 43/131/131 31/112/112
f 31/112/112 43/131/131 23/130/130
f 31/112/112 23/130/130 16/111/111
f 16/111/111 23/130/130 19/135/135
f 16/111/111 19/136/136 15/110/110
f 15/137/137 19/129/129 24/128/128
f 15/138/138 24/128/128 21/109/109
f 21/109/109 24/128/128 44/126/126
f 74/118/118 73/127/127 55/117/117
f 55/117/117 73/127/127 44/126/126
f 55/117/117 44/126/126 30/125/125
f 30/125/125 44/126/126 24/128/128
f 30/125/125 24/128/128 20/124/124
f 20/124/124 24/128/128 19/129/129
f 20/124/124 19/129/129 22/123/123
f 22/123/123 19/129/129 23/139/139
f 22/140/140 23/130/130 36/122/122
f 36/122/122 23/130/130 43/131/131
f 36/122/122 43/131/131 70/121/121
f 70/121/121 43/131/131 72/132/132
f 70/121/121 72/132/132 82/120/120
f 82/120/120 72/132/132 85/133/133
f 82/120/120 85/133/133 84/119/119
f 84/119/119 85/133/133 86/134/134
f 84/119/119 86/134/134 74/118/118
f 74/118/118 86/134/134 73/127/127
f 14/142/142 27/162/162 57/141/141
f 57/141/141 27/162/162 78/163/163
f 57/141/141 78/163/163 91/151/151
f 91/151/151 78/163/163 97/170/170
f 91/151/151 97/170/170 103/150/150
f 103/150/150 97/170/170 102/169/169
f 103/150/150 102/169/169 104/149/149
f 104/149/149 102/169/169 96/168/168
f 104/149/149 96/168/168 100/148/148
f 100/148/148 96/168/168 77/161/161
f 100/148/148 77/161/161 79/147/147
f 79/147/147 77/161/161 26/167/167
f 79/147/147 26/167/167 25/146/146
f 25/146/146 26/167/167 6/145/145
f 6/145/145 26/167/167 7/166/166
f 6/145/145 7/166/166 1/144/144
f 1/144/144 7/166/166 3/171/171
f 1/144/144 3/172/172 2/143/143
f 2/173/173 3/165/165 8/164/164
f 2/174/174 8/164/164 14/142/142
f 14/142/142 8/164/164 27/162/162
f 83/153/153 78/163/163 56/152/152
f 56/152/152 78/163/163 27/162/162
f 56/152/152 27/162/162 21/160/160
f 21/160/160 27/162/162 8/164/164
f 21/160/160 8/164/164 15/159/159
f 15/159/159 8/164/164 3/165/165
f 15/159/159 3/165/165 16/158/158
f 16/158/158 3/165/165 7/175/175
f 16/176/176 7/166/166 31/157/157
f 31/157/157 7/166/166 26/167/167
f 31/157/157 26/167/167 77/161/161
f 78/163/163 83/153/153 97/170/170
f 97/170/170 83/153/153 90/154/154
f 97/170/170 90/154/154 102/169/169
f 102/169/169 90/154/154 89/155/155
f 102/169/169 89/155/155 96/168/168
f 96/168/168 89/155/155 71/156/156
f 96/168/168 71/156/156 77/161/161
f 77/161/161 71/156/156 31/157/157
f 40/178/178 1/194/194 35/177/177
f 35/177/177 1/194/194 2/195/195
f 35/177/177 2/195/195 42/185/185
f 42/185/185 2/195/195 14/196/196
f 42/185/185 14/196/196 51/184/184
f 51/184/184 14/196/196 57/186/186
f 51/184/184 57/186/186 65/183/183
f 65/183/183 57/186/186 91/187/187
f 65/183/183 91/187/187 103/188/188
f 49/179/179 25/192/192 40/178/178
f 40/178/178 25/192/192 6/193/193
f 40/178/178 6/193/193 1/194/194
f 25/192/192 49/179/179 79/191/191
f 79/191/191 49/179/179 63/180/180
f 79/191/191 63/180/180 100/190/190
f 100/190/190 63/180/180 67/181/181
f 100/190/190 67/181/181 104/189/189
f 104/189/189 67/181/181 69/182/182
f 104/189/189 69/182/182 103/188/188
f 103/188/188 69/182/182 65/183/183

# 104 vertices
# 196 texture params
# 196 normals
# 204 facets

# 1 groups
