{
  "accessors": [
    {
      "bufferView": 2,
      "componentType": 5126,
      "count": 15634,
      "max": [
        0.09778140485286713,
        0.011355993337929249,
        2.749951022451569e-07
      ],
      "min": [
        0.022437842562794685,
        0.0,
        -0.12017897516489029
      ],
      "type": "VEC3"
    },
    {
      "bufferView": 2,
      "byteOffset": 187608,
      "componentType": 5126,
      "count": 15634,
      "max": [
        1.0,
        1.0,
        1.0
      ],
      "min": [
        -1.0,
        -1.0,
        -1.0
      ],
      "type": "VEC3"
    },
    {
      "bufferView": 1,
      "componentType": 5126,
      "count": 15634,
      "max": [
        0.994391143321991,
        0.0
      ],
      "min": [
        0.006410177797079086,
        0.0
      ],
      "type": "VEC2"
    },
    {
      "bufferView": 0,
      "componentType": 5125,
      "count": 78624,
      "type": "SCALAR"
    }
  ],
  "asset": {
    "extras": {
      "author": "Ilyas.King (https://sketchfab.com/Ilyas.King)",
      "license": "CC-BY-4.0 (http://creativecommons.org/licenses/by/4.0/)",
      "source": "https://sketchfab.com/3d-models/map-pin-667ec99860674e57892823a19a1d8f15",
      "title": "Map Pin"
    },
    "generator": "Sketchfab-12.65.0",
    "version": "2.0"
  },
  "bufferViews": [
    {
      "buffer": 0,
      "byteLength": 314496,
      "name": "floatBufferViews",
      "target": 34963
    },
    {
      "buffer": 0,
      "byteLength": 125072,
      "byteOffset": 314496,
      "byteStride": 8,
      "name": "floatBufferViews",
      "target": 34962
    },
    {
      "buffer": 0,
      "byteLength": 375216,
      "byteOffset": 439568,
      "byteStride": 12,
      "name": "floatBufferViews",
      "target": 34962
    }
  ],
  "buffers": [
    {
      "byteLength": 814784,
      "uri": "scene.bin"
    }
  ],
  "materials": [
    {
      "doubleSided": true,
      "name": "Material",
      "pbrMetallicRoughness": {
        "baseColorFactor": [
          0.8,
          0.0,
          0.0104447,
          1.0
        ],
        "metallicFactor": 0.0,
        "roughnessFactor": 0.4
      }
    }
  ],
  "meshes": [
    {
      "name": "Object_0",
      "primitives": [
        {
          "attributes": {
            "NORMAL": 1,
            "POSITION": 0,
            "TEXCOORD_0": 2
          },
          "indices": 3,
          "material": 0,
          "mode": 4
        }
      ]
    }
  ],
  "nodes": [
    {
      "children": [
        1
      ],
      "matrix": [
        1.0,
        0.0,
        0.0,
        0.0,
        0.0,
        2.220446049250313e-16,
        -1.0,
        0.0,
        0.0,
        1.0,
        2.220446049250313e-16,
        0.0,
        0.0,
        0.0,
        0.0,
        1.0
      ],
      "name": "Sketchfab_model"
    },
    {
      "children": [
        2
      ],
      "name": "root"
    },
    {
      "children": [
        3
      ],
      "matrix": [
        1.0,
        0.0,
        0.0,
        0.0,
        0.0,
        2.220446049250313e-16,
        1.0,
        0.0,
        0.0,
        -1.0,
        2.220446049250313e-16,
        0.0,
        0.0,
        0.0,
        0.0,
        1.0
      ],
      "name": "GLTF_SceneRootNode"
    },
    {
      "children": [
        4
      ],
      "matrix": [
        -3.6641335487365625,
        -1.9655210629830726e-07,
        -1.9655185777691512e-07,
        0.0,
        1.9655210629830726e-07,
        -4.632950327285321e-06,
        -3.6641335487336386,
        0.0,
        1.9655185777691512e-07,
        -3.6641335487336386,
        4.632950336641733e-06,
        0.0,
        0.20285344123840332,
        0.0,
        0.022118791937828064,
        1.0
      ],
      "name": "Curve_2"
    },
    {
      "mesh": 0,
      "name": "Object_4"
    }
  ],
  "scene": 0,
  "scenes": [
    {
      "name": "Sketchfab_Scene",
      "nodes": [
        0
      ]
    }
  ]
}
