<?xml version="1.0" encoding="utf-8"?>
<!-- Generator: Adobe Illustrator 15.1.0, SVG Export Plug-In . SVG Version: 6.00 Build 0)  -->
<!DOCTYPE svg PUBLIC "-//W3C//DTD SVG 1.1//EN" "http://www.w3.org/Graphics/SVG/1.1/DTD/svg11.dtd">
<svg version="1.1" id="Layer_1" xmlns="http://www.w3.org/2000/svg" xmlns:xlink="http://www.w3.org/1999/xlink" x="0px" y="0px"
	 width="792px" height="612px" viewBox="0 0 792 612" enable-background="new 0 0 792 612" xml:space="preserve">
<path fill-rule="evenodd" clip-rule="evenodd" stroke="#000000" stroke-width="2.9999" stroke-linecap="round" stroke-linejoin="round" stroke-miterlimit="22.9256" d="
	M394.894,392.771c1.862,0.671,3.905-0.285,5.703,1.176c1.797,1.461,3.348,5.338,5.105,6.76s3.722,0.388,5.233,1.512
	s2.569,4.407,4.379,6.552c1.81,2.146,4.37,3.154,6.168,5.209c1.797,2.056,2.83,5.157,4.858,7.341
	c2.028,2.185,5.052,3.45,7.804,7.599s5.233,11.179,6.681,16.142c1.448,4.964,1.861,7.858-1.034,10.96
	c-2.895,3.102-9.098,6.411-11.476,9.409s-0.931,5.687,1.551,8.064s5.997,4.445,9.719,8.788s7.651,10.96,9.719,16.337
	c2.068,5.376,2.274,9.512,2.378,12.924s0.104,6.101-0.724,9.306c-0.827,3.204-2.481,6.927-5.583,9.615s-7.651,4.342-10.236,8.478
	s-3.205,10.754-3.102,15.199c0.104,4.446,0.931,6.721,3.412,9.202s6.617,5.17,12.097,6.514c5.48,1.344,12.304,1.344,19.128,1.447
	s13.648,0.311,19.955,1.241s12.097,2.585,17.06,3.412s9.099,0.827,14.476-0.827c5.376-1.654,11.993-4.963,19.645-6.411
	c7.65-1.447,16.336-1.033,23.78-0.827c7.444,0.207,13.647,0.207,21.402-2.274c7.754-2.481,17.06-7.444,23.677-11.27
	s10.546-6.514,14.269-6.308c3.722,0.207,7.237,3.31,10.753,5.066c3.515,1.758,7.03,2.172,7.961,0.724
	c0.931-1.447-0.724-4.756-3.205-7.444c-2.481-2.688-5.79-4.755-6.203-6.616c-0.414-1.861,2.067-3.516,4.445-5.894
	s4.652-5.479,5.894-8.893c1.24-3.411,1.447-7.134,1.138-10.753c-0.311-3.618-1.138-7.134,0.723-10.029
	c1.861-2.895,6.411-5.169,9.822-5.272c3.413-0.104,5.688,1.965,7.031,0.207c1.345-1.758,1.758-7.341,2.481-11.787
	c0.724-4.445,1.758-7.755,3.619-12.614c1.86-4.859,4.549-11.269,7.03-14.888s4.756-4.446,6.721-5.79
	c1.965-1.345,3.619-3.205,6.307-4.136c2.688-0.931,6.41-0.931,10.029-2.688c3.618-1.758,7.135-5.273,8.375-8.788
	c1.24-3.516,0.207-7.031-1.758-9.409c-1.964-2.378-4.859-3.619-6.41-5.377c-1.551-1.757-1.758-4.032-0.827-6.514
	c0.931-2.48,2.998-5.169,5.272-7.341c2.275-2.171,4.757-3.825,7.135-7.341c2.378-3.515,4.652-8.892,6.203-14.371
	c1.552-5.48,2.378-11.063,1.034-15.303s-4.859-7.134-5.79-9.926s0.724-5.48,2.688-9.202c1.965-3.722,4.239-8.479,4.859-12.82
	c0.621-4.343-0.413-8.272-0.413-13.234c0-4.963,1.034-10.96,0.207-16.13c-0.827-5.169-3.516-9.512-4.86-16.336
	c-1.344-6.824-1.344-16.129-2.584-22.126c-1.241-5.997-3.723-8.685-6.308-9.926s-5.272-1.034-8.271-3.102
	c-2.998-2.068-6.307-6.411-8.685-9.047c-2.378-2.636-3.825-3.567-5.479-3.515c-1.655,0.051-3.516,1.085-5.532,0
	c-2.016-1.086-4.187-4.291-6.617-7.186c-2.43-2.896-5.117-5.48-7.237-7.807c-2.119-2.326-3.67-4.394-5.272-5.066
	c-1.604-0.672-3.257,0.051-6.101-0.052c-2.843-0.104-6.876-1.034-11.114-1.292c-4.239-0.259-8.686,0.155-12.098-0.672
	c-3.412-0.827-5.79-2.895-6.049-5.996c-0.258-3.102,1.603-7.238,5.635-8.996c4.033-1.758,10.236-1.138,14.785-1.241
	c4.55-0.104,7.445-0.931,12.459-0.517c5.016,0.414,12.149,2.068,17.268,1.344c5.117-0.724,8.219-3.826,8.994-6.721
	s-0.775-5.583-1.912-8.633c-1.138-3.05-1.861-6.461-3.051-11.733c-1.189-5.273-2.843-12.407-4.808-17.784
	c-1.965-5.376-4.239-8.995-6.307-12.873c-2.068-3.877-3.929-8.013-4.602-10.752c-0.672-2.74-0.155-4.084,1.189-4.602
	c1.344-0.517,3.515-0.207,4.601-1.654c1.086-1.448,1.086-4.653,0.568-9.15c-0.517-4.498-1.551-10.288-4.704-14.268
	c-3.153-3.981-8.427-6.152-12.304-7.651c-3.877-1.5-6.358-2.327-8.116-1.448s-2.792,3.463-5.015,4.136
	c-2.223,0.672-5.635-0.568-8.892-1.913s-6.358-2.792-6.824-4.446s1.706-3.516,0.672-5.015c-1.033-1.5-5.272-2.637-10.494-3.929
	s-11.425-2.74-16.543-4.032c-5.118-1.292-9.151-2.43-11.891-2.274c-2.74,0.155-4.188,1.603-6.876,3.309
	c-2.688,1.706-6.617,3.67-9.047,2.585c-2.43-1.086-3.36-5.222-3.36-9.099c0-3.877,0.931-7.496,0.724-11.27
	c-0.207-3.773-1.551-7.703-3.205-9.046c-1.654-1.345-3.618-0.104-5.687,1.292c-2.067,1.396-4.239,2.947-8.013,3.515
	c-3.774,0.569-9.15,0.155-14.476-0.62c-5.324-0.775-10.598-1.913-15.509-2.43s-9.461-0.414-13.647-1.396
	c-4.188-0.982-8.014-3.05-11.322-5.738c-3.309-2.688-6.1-5.997-8.375-8.013c-2.274-2.016-4.032-2.74-6.772-3.516
	c-2.739-0.775-6.462-1.603-9.563-2.171s-5.583-0.878-8.013-0.517s-4.808,1.396-6.669,2.533c-1.861,1.138-3.205,2.378-5.222,2.119
	c-2.016-0.258-4.704-2.016-6.772-4.135c-2.067-2.12-3.515-4.602-5.944-5.583c-2.43-0.982-5.842-0.465-8.686,0.62
	s-5.117,2.74-8.168,3.67c-3.05,0.931-6.876,1.137-10.598,2.12c-3.723,0.982-7.341,2.74-10.288,5.066
	c-2.947,2.327-5.222,5.222-7.703,5.842c-2.481,0.621-5.17-1.033-7.496-1.861c-2.326-0.827-4.291-0.827-6.358-0.671
	c-2.068,0.154-4.239,0.465-7.083,1.034c-2.844,0.568-6.359,1.396-8.686,2.507c-2.327,1.111-3.464,2.507-4.912,1.551
	c-1.449-0.957-3.206-4.265-4.447-6.333s-1.964-2.895-3.024-2.3c-1.06,0.594-2.456,2.611-3.309,4.472
	c-0.853,1.861-1.163,3.567-1.137,5.816c0.026,2.249,0.387,5.041-0.284,7.987c-0.672,2.946-2.378,6.049-3.955,8.504
	c-1.577,2.455-3.024,4.264-4.627,6.1c-1.603,1.835-3.36,3.696-4.291,6.126c-0.931,2.43-1.034,5.428-0.362,7.393
	c0.672,1.964,2.119,2.895,3.748,2.481c1.628-0.414,3.438-2.171,4.963-2.714c1.525-0.543,2.766,0.129,2.688,1.887
	c-0.078,1.757-1.474,4.601-2.56,6.953c-1.085,2.353-1.861,4.213-3.257,6.592c-1.396,2.378-3.412,5.273-3.903,7.392
	c-0.491,2.12,0.543,3.464-0.491,4.808c-1.034,1.344-4.136,2.688-6.927,4.239c-2.792,1.551-5.273,3.308-8.219,6.462
	c-2.947,3.153-6.359,7.703-8.789,11.942c-2.43,4.239-3.877,8.168-5.17,12.097s-2.43,7.858-2.895,11.58
	c-0.465,3.722-0.258,7.238,0.879,10.185c1.138,2.946,3.206,5.324,5.583,6.513c2.378,1.189,5.066,1.189,7.238,0.362
	c2.17-0.827,3.825-2.481,6.151-4.601c2.326-2.12,5.325-4.705,6.255-4.394c0.93,0.31-0.207,3.515,0.362,5.997
	c0.568,2.481,2.843,4.239,3.98,5.738c1.137,1.5,1.137,2.74,0.258,4.498c-0.879,1.757-2.636,4.032-4.601,6.203
	c-1.964,2.172-4.135,4.239-5.764,6.979c-1.628,2.74-2.714,6.152-3.334,8.737c-0.621,2.585-0.776,4.343-0.414,5.972
	c0.362,1.628,1.241,3.127,0.75,4.678c-0.491,1.551-2.352,3.154-3.8,4.601c-1.448,1.448-2.482,2.74-3.231,4.86
	c-0.75,2.119-1.215,5.066-1.525,7.393c-0.31,2.326-0.465,4.032,0.104,6.151c0.568,2.12,1.86,4.652,2.74,6.411
	c0.878,1.758,1.344,2.739,0.878,3.256c-0.465,0.517-1.861,0.569-4.058,0.491c-2.197-0.078-5.196-0.284-7.806-0.051
	c-2.611,0.232-4.833,0.904-7.444,1.99c-2.61,1.085-5.608,2.584-8.399,4.032c-2.792,1.447-5.376,2.843-6.928,4.523
	c-1.551,1.68-2.068,3.644-3.593,4.808c-1.525,1.163-4.058,1.524-6.1,1.861c-2.042,0.336-3.593,0.646-4.833,1.861
	s-2.172,3.334-3.076,4.395c-0.905,1.06-1.783,1.06-2.093-0.362c-0.311-1.422-0.052-4.266-1.5-5.79
	c-1.448-1.525-4.602-1.732-6.514-0.672c-1.913,1.06-2.585,3.386-2.016,5.015c0.569,1.628,2.378,2.559,3.05,3.8
	c0.671,1.241,0.207,2.791-2.456,4.42c-2.662,1.628-7.522,3.334-10.65,3.645c-3.127,0.31-4.523-0.775-3.748-2.171
	c0.775-1.396,3.722-3.102,4.834-6.074c1.111-2.973,0.388-7.212-0.853-8.168s-2.999,1.37-4.523,3.386
	c-1.525,2.016-2.817,3.722-4.394,4.342c-1.577,0.621-3.438,0.155-3.619-1.448c-0.181-1.602,1.318-4.342,3.644-7.056
	c2.327-2.714,5.48-5.402,6.152-8.194c0.672-2.792-1.137-5.687-2.946-6.513c-1.81-0.828-3.619,0.413-5.661,2.222
	c-2.042,1.81-4.317,4.188-7.211,5.635c-2.895,1.448-6.411,1.964-8.944,1.473s-4.084-1.99-3.36-3.618s3.722-3.386,6.411-6.075
	c2.688-2.688,5.066-6.307,6.126-9.228c1.06-2.921,0.801-5.144,0.155-7.186c-0.647-2.042-1.68-3.903-2.507-5.583
	c-0.827-1.68-1.447-3.18-1.292-5.79c0.155-2.611,1.086-6.333,0.879-8.97c-0.207-2.637-1.551-4.188-2.999-4.808
	c-1.448-0.62-2.998-0.31-4.394-1.137s-2.636-2.791-2.585-4.239c0.052-1.448,1.396-2.378,1.137-3.671s-2.119-2.946-3.722-3.67
	c-1.603-0.724-2.946-0.517-3.722-1.499s-0.982-3.153-1.603-4.394c-0.621-1.241-1.655-1.551-2.844-1.241
	c-1.189,0.31-2.533,1.241-3.463,0.982c-0.931-0.258-1.448-1.706-1.292-3.309c0.155-1.603,0.982-3.36,0.103-4.395
	c-0.879-1.034-3.463-1.344-5.273-0.827c-1.809,0.517-2.843,1.861-4.239,1.344s-3.154-2.895-4.653-4.291s-2.74-1.81-3.877-1.603
	c-1.138,0.207-2.172,1.034-3.36,0.207c-1.189-0.827-2.534-3.308-4.084-4.705c-1.551-1.396-3.309-1.706-4.601-1.344
	c-1.292,0.362-2.12,1.396-3.464,1.913c-1.344,0.517-3.205,0.517-5.222-0.621c-2.016-1.138-4.187-3.412-6.565-3.877
	c-2.378-0.465-4.963,0.878-7.186,1.602c-2.223,0.724-4.084,0.827-5.945,1.758s-3.722,2.688-5.841,3.463
	c-2.12,0.776-4.498,0.569-7.134-0.362s-5.532-2.584-7.807-4.498c-2.274-1.913-3.929-4.084-4.549-6.513
	c-0.621-2.43-0.207-5.119-0.982-6.824c-0.775-1.706-2.74-2.43-2.378-3.826s3.05-3.463,3.722-5.997
	c0.672-2.533-0.672-5.532-1.913-6.565c-1.241-1.034-2.378-0.104-3.05,1.292c-0.672,1.396-0.879,3.257-2.636,3.464
	c-1.758,0.207-5.067-1.241-6.824-3.412c-1.758-2.171-1.964-5.067-2.378-8.427c-0.414-3.36-1.034-7.186-0.052-9.719
	c0.982-2.534,3.567-3.774,5.014-5.842c1.448-2.068,1.758-4.963,0.879-7.393c-0.879-2.43-2.946-4.395-4.342-6.359
	s-2.12-3.929-1.809-6.411c0.31-2.481,1.654-5.479,0.827-7.496c-0.827-2.016-3.826-3.049-5.48-2.222
	c-1.654,0.826-1.965,3.515-2.895,6.203c-0.931,2.688-2.481,5.376-3.102,7.961c-0.621,2.585-0.311,5.066,0.051,7.91
	c0.362,2.843,0.775,6.048,1.24,8.788c0.465,2.74,0.982,5.015,1.551,7.238c0.569,2.223,1.189,4.394,0.879,6.462
	s-1.551,4.032-2.688,5.635s-2.171,2.843-1.55,4.395c0.62,1.551,2.895,3.412,4.342,5.531c1.447,2.12,2.068,4.498,3.826,5.945
	c1.757,1.447,4.652,1.964,5.635,5.118c0.982,3.153,0.051,8.943,0.827,12.614c0.775,3.67,3.257,5.221,5.376,6.823
	c2.12,1.603,3.877,3.257,5.273,4.084c1.396,0.827,2.43,0.827,3.36,0.103c0.93-0.724,1.757-2.171,3.257-2.326
	c1.499-0.155,3.67,0.982,5.842,2.378c2.171,1.396,4.342,3.05,6.462,3.773c2.12,0.724,4.188,0.518,5.169,1.448
	c0.982,0.93,0.879,2.998,1.293,4.549c0.413,1.55,1.344,2.584,5.738,3.618c4.394,1.034,12.252,2.068,16.905,2.792
	c4.653,0.724,6.1,1.138,7.806,1.965s3.67,2.068,6.048,2.74c2.378,0.672,5.17,0.775,6.94,2.132c1.771,1.356,2.521,3.968,3.257,6.255
	c0.736,2.288,1.46,4.252,1.667,6.268s-0.104,4.084-0.724,6.048c-0.621,1.965-1.551,3.826-1.654,6.824
	c-0.103,2.998,0.62,7.134,1.034,10.443s0.517,5.79-0.775,6.772c-1.292,0.982-3.981,0.465-5.273,1.447
	c-1.292,0.982-1.188,3.463-2.998,4.808c-1.809,1.344-5.532,1.551-7.393,2.43c-1.861,0.879-1.861,2.43-0.827,3.36
	c1.034,0.931,3.102,1.241,5.324,1.706c2.223,0.465,4.601,1.085,5.945,2.016s1.654,2.171,1.344,3.774
	c-0.311,1.603-1.241,3.567-2.378,5.325c-1.138,1.758-2.481,3.309-2.792,4.756c-0.31,1.447,0.414,2.792-0.104,4.239
	c-0.517,1.448-2.274,2.999-3.618,4.498c-1.345,1.5-2.275,2.947-2.534,4.498c-0.258,1.551,0.155,3.205-0.414,3.825
	c-0.568,0.621-2.119,0.207-3.412-0.052c-1.293-0.258-2.327-0.362-2.275,0.672s1.189,3.205,2.223,4.498
	c1.034,1.292,1.964,1.706,2.882,2.197s1.822,1.06,2.248,1.965c0.426,0.904,0.375,2.146,0.142,3.334
	c-0.233,1.189-0.646,2.326-0.672,3.696c-0.025,1.37,0.336,2.973,0.801,4.834s1.034,3.98,1.396,5.764
	c0.362,1.784,0.517,3.231,0.207,4.576c-0.31,1.344-1.086,2.584-1.758,4.109s-1.241,3.334-0.957,5.221
	c0.285,1.888,1.422,3.852,1.655,6.721c0.232,2.869-0.44,6.644-1.552,8.452c-1.111,1.81-2.662,1.655-2.042,2.999
	c0.62,1.345,3.412,4.188,5.376,4.988c1.964,0.802,3.102-0.438,3.929-2.196s1.344-4.032,1.319-6.669
	c-0.026-2.637-0.595-5.635-0.362-7.574c0.233-1.938,1.267-2.817,1.68-1.835c0.414,0.982,0.207,3.826,0.517,5.997
	c0.311,2.171,1.138,3.67,2.585,4.29c1.447,0.621,3.515,0.362,4.549-0.956c1.034-1.318,1.034-3.696,1.809-5.17
	c0.775-1.473,2.326-2.041,2.817-3.205c0.491-1.163-0.078-2.92,0.698-3.541c0.775-0.62,2.895-0.104,4.187-0.568
	c1.293-0.465,1.758-1.913,2.947-2.042c1.189-0.129,3.102,1.06,3.567,2.507c0.465,1.448-0.517,3.154-1.189,4.86
	c-0.672,1.706-1.034,3.411-1.305,4.924c-0.271,1.512-0.45,2.831,0.132,3.853c0.583,1.021,1.926,1.744,3.425,2.778
	s3.153,2.378,3.205,4.136s-1.499,3.929-1.81,5.377c-0.31,1.447,0.621,2.171,1.964,2.998c1.344,0.827,3.102,1.758,3.671,3.412
	s-0.052,4.032-1.396,4.704s-3.412-0.362-5.79-1.034s-5.066-0.982-6.979-0.104c-1.913,0.879-3.05,2.947-2.895,4.602
	s1.603,2.895,3.567,3.153c1.965,0.259,4.446-0.465,6.514-0.775c2.068-0.311,3.722-0.207,4.497,1.034
	c0.776,1.24,0.672,3.618-0.774,4.704c-1.448,1.086-4.24,0.879-6.256,0.62c-2.016-0.258-3.257-0.568-4.239,0.362
	s-1.706,3.102-1.706,4.756s0.723,2.792,1.964,3.05c1.241,0.259,2.999-0.361,4.911-1.085c1.913-0.724,3.981-1.551,5.583-1.086
	c1.603,0.466,2.74,2.223,2.947,3.877c0.207,1.654-0.517,3.205-0.465,4.523s0.879,2.404,1.965,2.662
	c1.085,0.259,2.43-0.31,4.136,0.518s3.773,3.05,5.014,5.401c1.241,2.353,1.654,4.834,2.843,6.979
	c1.189,2.146,3.153,3.954,4.42,5.635c1.266,1.681,1.835,3.231,2.999,4.756c1.163,1.525,2.92,3.024,4.782,4.239
	s3.825,2.146,4.963,3.335c1.137,1.188,1.448,2.637,1.81,3.954c0.361,1.319,0.775,2.508,1.99,3.205
	c1.215,0.698,3.231,0.905,4.239,1.5c1.008,0.595,1.008,1.576,0.905,2.636c-0.104,1.061-0.31,2.197-0.246,3.063
	c0.064,0.865,0.4,1.46,1.099,2.041c0.698,0.582,1.757,1.15,3.076,1.771c1.318,0.621,2.895,1.293,4.033,1.163
	c1.137-0.129,1.835-1.06,2.831-1.292c0.995-0.232,2.287,0.232,3.463,1.138c1.176,0.904,2.236,2.248,3.179,2.869
	c0.944,0.62,1.771,0.517,2.856,0.013c1.086-0.504,2.43-1.409,3.554-1.267c1.125,0.143,2.03,1.331,2.779,2.223s1.344,1.486,2.21,1.37
	s2.003-0.943,2.882-0.672c0.878,0.271,1.499,1.642,2.494,2.74c0.996,1.099,2.365,1.926,3.593,2.029
	c1.228,0.104,2.313-0.518,2.875-1.377c0.56-0.858,0.597-1.955,0.873-2.763s0.793-1.324,1.336-1.04s1.111,1.37,2.024,2.655
	c0.912,1.285,2.168,2.771,3.831,3.771s3.73,1.519,5.979,1.156c2.249-0.362,4.678-1.603,5.169-2.843
	c0.491-1.241-0.956-2.481-2.792-3.102c-1.835-0.621-4.058-0.621-5.635-1.37c-1.577-0.75-2.508-2.25-3.024-3.723
	c-0.517-1.474-0.621-2.921-0.517-4.291c0.103-1.37,0.414-2.662,1.034-2.378c0.621,0.284,1.551,2.146,2.534,3.438
	c0.982,1.292,2.016,2.016,2.326,1.344c0.31-0.672-0.103-2.74,0.026-4.472c0.129-1.732,0.801-3.128,1.344-3.128
	c0.542,0,0.957,1.396,1.344,2.403c0.387,1.009,0.75,1.629,1.214,1.784c0.466,0.155,1.035-0.155,1.913-0.646
	c0.879-0.491,2.068-1.163,3.102-1.603c1.034-0.439,1.913-0.646,2.844-0.232c0.93,0.414,1.913,1.447,2.068,2.766
	c0.155,1.318-0.518,2.921-0.259,3.98c0.259,1.061,1.448,1.577,2.404,1.654c0.957,0.078,1.681-0.284,2.042,0.207
	s0.362,1.836,0.465,3.205c0.104,1.37,0.311,2.766,0.982,3.955s1.809,2.171,2.792,2.714c0.982,0.543,1.809,0.646,2.456-0.259
	c0.646-0.904,1.111-2.817,1.758-3.464c0.646-0.646,1.473-0.025,2.171,1.164c0.698,1.188,1.267,2.946,1.706,3.566
	c0.439,0.621,0.75,0.104,1.422-1.033c0.672-1.138,1.706-2.896,2.533-4.757s1.447-3.825,1.706-5.325
	c0.258-1.499,0.155-2.532-0.31-3.566s-1.292-2.068-2.714-2.301s-3.438,0.336-4.782,0.026c-1.344-0.311-2.016-1.499-2.016-2.481
	s0.672-1.758,2.456-2.146s4.679-0.388,5.428-1.81c0.75-1.421-0.646-4.265-1.784-6.255c-1.137-1.99-2.016-3.128-2.816-4.11
	c-0.802-0.981-1.526-1.809-2.172-3.333c-0.646-1.525-1.215-3.748-1.99-5.195c-0.775-1.448-1.758-2.12-2.559-3.567
	c-0.802-1.447-1.422-3.671-1.422-5.79s0.62-4.136,2.249-5.765c1.628-1.628,4.265-2.868,6.41-3.851s3.8-1.707,5.041-1.654
	c1.241,0.051,2.068,0.879,2.818,2.274c0.749,1.396,1.421,3.36,3.205,5.066c1.784,1.706,4.679,3.153,6.979,3.438
	s4.006-0.594,4.342-1.68c0.336-1.086-0.698-2.378-1.732-3.36c-1.034-0.982-2.068-1.654-1.783-2.817
	c0.284-1.163,1.887-2.817,2.352-5.015s-0.207-4.938-0.775-6.85c-0.569-1.913-1.034-2.999-0.232-4.266
	c0.801-1.267,2.869-2.714,4.316-4.446c1.447-1.731,2.274-3.748,3.154-5.532c0.878-1.783,1.809-3.334,2.274-5.144
	c0.465-1.81,0.465-3.877-0.052-6.151c-0.517-2.275-1.55-4.756-3.023-7.522c-1.474-2.766-3.386-5.816-3.955-7.961
	c-0.568-2.146,0.207-3.387,1.422-3.335c1.214,0.052,2.869,1.396,4.083,3.205c1.215,1.81,1.99,4.085,2.947,5.041
	c0.956,0.956,2.093,0.595,3.257-0.362c1.163-0.956,2.352-2.507,3.127-2.507s1.137,1.551,2.094,2.61
	c0.956,1.061,2.507,1.629,4.083,1.913s3.179,0.284,4.006,1.034c0.827,0.749,0.879,2.249,1.887,3.903
	c1.008,1.654,2.972,3.463,4.084,5.194c1.111,1.732,1.37,3.387,2.223,4.782c0.853,1.396,2.3,2.533,4.006,2.921
	s3.67,0.026,5.493,0.995C391.354,389.8,393.033,392.1,394.894,392.771L394.894,392.771z M346.12,440.852
	c-2.611-1.964-5.196-1.603-6.514-0.75c-1.318,0.854-1.37,2.197-0.982,3.826c0.388,1.628,1.215,3.541,1.887,5.454
	c0.672,1.913,1.189,3.825,1.448,5.583c0.258,1.758,0.258,3.36,0.957,4.472c0.698,1.111,2.093,1.731,3.644,1.396
	s3.257-1.628,4.523-3.36c1.267-1.731,2.094-3.902,1.189-7.134C351.367,447.106,348.73,442.816,346.12,440.852L346.12,440.852z
	 M208.891,430.653c-0.879,0.064-1.706,0.246-2.637,0.97c-0.93,0.724-1.964,1.99-2.378,3.27s-0.207,2.572,0.366,3.372
	c0.572,0.801,1.51,1.109,1.898,1.678c0.388,0.569,0.225,1.397-0.606,2.304c-0.831,0.905-2.331,1.888-2.511,3.18
	c-0.181,1.293,0.957,2.896,2.456,4.058c1.5,1.164,3.36,1.888,4.679,1.164c1.318-0.724,2.093-2.896,2.481-5.558
	s0.388-5.815,0.156-8.297c-0.233-2.481-0.698-4.291-1.396-5.222C210.7,430.641,209.77,430.589,208.891,430.653L208.891,430.653z
	 M207.701,427.437c0.258-0.62,0.155-1.706-0.207-2.74s-0.982-2.017-2.067-2.998c-1.086-0.982-2.637-1.965-4.343-3.103
	c-1.707-1.137-3.567-2.43-4.86-3.127c-1.292-0.698-2.016-0.802-2.895-0.232c-0.879,0.568-1.913,1.809-1.499,2.972
	c0.413,1.164,2.274,2.249,3.593,3.903c1.318,1.654,2.093,3.877,2.403,6.126c0.311,2.249,0.155,4.523,1.06,5.506
	s2.869,0.672,4.265-0.439s2.223-3.023,2.947-4.059C206.822,428.212,207.442,428.057,207.701,427.437L207.701,427.437z
	 M285.218,194.183c-0.956-0.646-1.137-1.758-1.021-3.076c0.116-1.318,0.53-2.843,1.667-4.135c1.137-1.292,2.998-2.353,4.873-2.934
	c1.874-0.582,3.761-0.686,4.938,0.038c1.176,0.724,1.642,2.274,1.357,3.399c-0.285,1.124-1.318,1.822-2.314,2.106
	c-0.995,0.284-1.951,0.155-2.792,1.021c-0.84,0.866-1.563,2.727-2.792,3.567C287.906,195.009,286.174,194.828,285.218,194.183
	L285.218,194.183z M291.783,237.944c-1.551,0.517-4.601,0.517-6.565-0.439s-2.843-2.869-3.023-5.376
	c-0.182-2.507,0.335-5.609-0.492-8.582s-2.999-5.816-5.971-8.762c-2.972-2.947-6.747-5.997-8.607-8.84
	c-1.861-2.844-1.809-5.48,0.103-8.53c1.913-3.05,5.687-6.514,8.375-7.418c2.688-0.905,4.291,0.749,4.523,2.792
	c0.232,2.042-0.905,4.472-0.129,5.919c0.775,1.447,3.463,1.912,5.041,1.577c1.577-0.336,2.042-1.474,2.482-1.422
	c0.439,0.052,0.853,1.292,1.886,2.404c1.034,1.111,2.688,2.094,3.981,2.507s2.223,0.259,2.688,1.241
	c0.465,0.982,0.465,3.102,0.879,4.498s1.241,2.068,1.525,3.49c0.284,1.421,0.026,3.593-0.62,6.022
	c-0.647,2.43-1.681,5.118-2.482,7.884c-0.802,2.766-1.37,5.608-1.68,7.547S293.334,237.427,291.783,237.944L291.783,237.944z
	 M269.372,256.891c-1.37,0.491-3.231,0.646-4.472-0.31c-1.241-0.957-1.861-3.024-0.672-5.015c1.189-1.991,4.188-3.903,3.903-6.1
	c-0.284-2.198-3.852-4.679-4.679-6.876c-0.827-2.197,1.085-4.11,3.515-3.929c2.43,0.181,5.376,2.456,7.858,4.963
	c2.481,2.507,4.498,5.247,5.118,7.289c0.621,2.042-0.155,3.386-1.396,4.033c-1.241,0.646-2.947,0.594-4.033,1.111
	c-1.085,0.517-1.551,1.603-2.223,2.559C271.62,255.572,270.741,256.399,269.372,256.891L269.372,256.891z M255.439,264.439
	c1.292-0.957,2.274-2.301,1.913-3.749c-0.362-1.448-2.068-2.998-3.826-5.222c-1.757-2.223-3.566-5.118-4.807-7.599
	c-1.241-2.482-1.913-4.549-3.309-4.911s-3.515,0.982-3.825,4.343c-0.31,3.36,1.188,8.736,3.05,12.278
	c1.861,3.541,4.084,5.247,5.997,5.816C252.544,265.963,254.146,265.395,255.439,264.439L255.439,264.439z M148.659,363.151
	c-0.905-0.982-1.577-2.119-1.81-3.594c-0.233-1.473-0.026-3.282-0.285-5.428c-0.258-2.146-0.982-4.627-2.12-6.772
	c-1.137-2.146-2.688-3.954-3.36-6.229c-0.672-2.274-0.465-5.015,0.982-7.005c1.448-1.99,4.136-3.23,6.075-2.326
	s3.127,3.955,3.877,7.341s1.06,7.108,1.138,10.469c0.077,3.36-0.078,6.358-0.155,8.633c-0.078,2.275-0.078,3.826-0.259,4.963
	c-0.181,1.138-0.542,1.861-1.292,1.81C150.701,364.96,149.564,364.133,148.659,363.151L148.659,363.151z M161.223,260.817
	c-0.698-1.267-1.939-3.128-3.671-4.342c-1.732-1.215-3.955-1.784-5.351-0.724c-1.396,1.06-1.964,3.747-2.042,5.557
	c-0.078,1.81,0.335,2.74,1.447,3.102c1.111,0.362,2.921,0.155,4.808-0.103c1.887-0.259,3.851-0.569,4.756-1.06
	C162.075,262.756,161.92,262.084,161.223,260.817L161.223,260.817z M134.004,233.03c-1.241,2.378-2.482,4.756-2.533,7.031
	c-0.052,2.275,1.085,4.446,2.068,6.514c0.982,2.068,1.809,4.032,2.946,3.774c1.138-0.259,2.584-2.74,3.153-5.222
	s0.259-4.963-0.361-7.083c-0.621-2.12-1.551-3.877-2.482-4.652C135.865,232.616,134.935,232.823,134.004,233.03L134.004,233.03z
	 M171.135,246.962c-0.53-0.646-1.228-1.318-2.313-1.835c-1.085-0.517-2.559-0.879-4.045-1.085c-1.486-0.207-2.985-0.259-3.683,0.568
	s-0.595,2.533,0.362,4.239s2.766,3.412,4.355,4.162c1.589,0.75,2.959,0.542,4.019-0.311c1.06-0.853,1.81-2.352,2.004-3.412
	C172.027,248.229,171.665,247.608,171.135,246.962L171.135,246.962z M116.194,209.379c-1.292,0.232-1.861,1.163-1.887,3.05
	c-0.026,1.887,0.491,4.73,0.956,6.617c0.465,1.887,0.879,2.817,2.198,3.179c1.318,0.361,3.541,0.155,6.125-0.207
	s5.532-0.878,7.187-0.49c1.654,0.387,2.016,1.68,2.067,2.895s-0.207,2.352,0.284,3.23c0.491,0.879,1.732,1.5,3.257,0.569
	c1.525-0.93,3.334-3.412,4.912-4.678c1.577-1.267,2.92-1.318,3.411-0.414c0.491,0.904,0.129,2.765-0.698,4.549
	c-0.827,1.783-2.12,3.489-1.99,4.549s1.68,1.473,2.456,2.74s0.775,3.386,0.517,5.222c-0.258,1.835-0.775,3.386,0.828,4.342
	c1.603,0.957,5.324,1.318,7.367,0.775c2.042-0.543,2.404-1.99,2.481-3.36c0.078-1.371-0.129-2.663-1.137-3.593
	c-1.008-0.931-2.818-1.499-3.05-3.076c-0.233-1.577,1.111-4.162,2.74-5.273c1.628-1.112,3.541-0.75,4.213,0.775
	c0.672,1.525,0.104,4.213,0.543,5.867c0.439,1.655,1.887,2.274,3.774,1.138c1.887-1.138,4.213-4.033,4.756-6.979
	c0.543-2.947-0.698-5.945-1.912-7.987c-1.216-2.042-2.404-3.128-3.49-4.188c-1.086-1.06-2.068-2.094-3.438-2.714
	c-1.37-0.621-3.128-0.827-4.782-1.292c-1.654-0.465-3.205-1.189-5.428-1.732c-2.223-0.543-5.118-0.905-6.979-0.698
	c-1.861,0.207-2.688,0.982-4.498,1.06c-1.81,0.077-4.601-0.543-6.798-1.318c-2.197-0.775-3.799-1.706-5.144-2.042
	c-1.345-0.336-2.43-0.078-3.981-0.181C119.503,209.611,117.487,209.146,116.194,209.379L116.194,209.379z M93.943,187.515
	c-2.46-1.064-4.58-1.426-5.071-0.159s0.646,4.162,3.49,6.927s7.393,5.402,10.106,5.842c2.714,0.439,3.593-1.318,3.209-3.02
	c-0.383-1.702-2.029-3.348-4.252-5.054C99.204,190.346,96.403,188.579,93.943,187.515z"/>
</svg>
